PathFileType	4	(x/y/z)	S04_P20_T21.trc
DataRate	CameraRate	NumFrames	NumMarkers	Units	OrigDataRate	OrigDataStartFrame	OrigNumFrames
240	240	8	51	mm	240	271	361
Frame#	Time	Sternum			R.Acromium			L.Acromium			Top.Head			R.ASIS			L.ASIS			R.PSIS			L.PSIS			R.Great.Tro			L.Great.Tro			R.Iliac.Crest			L.Iliac.Crest			V.Sacral			R.Thigh.Upper.Post			R.Thigh.Lower.Ant			R.Thigh.Lower.Post			R.Thigh.Upper.Ant			R.Knee.Lat			R.Knee.Med			R.Shank.Upper.Post			R.Shank.Lower.Ant			R.Shank.Lower.Post			R.Shank.Upper.Ant			R.Ankle.Lat			R.Ankle.Med			R.Heel.Upper			R.Heel.Med			R.Heel.Lat			R.Toe.Lat			R.Toe.Med			R.Toe.Tip			L.Thigh.Upper.Post			L.Thigh.Lower.Ant			L.Thigh.Lower.Post			L.Thigh.Upper.Ant			L.Knee.Lat			L.Knee.Med			L.Shank.Upper.Post			L.Shank.Lower.Ant			L.Shank.Lower.Post			L.Shank.Upper.Ant			L.Ankle.Lat			L.Ankle.Med			L.Heel.Upper			L.Heel.Med			L.Heel.Lat			L.Toe.Lat			L.Toe.Med			L.Toe.Tip			Cervical.Spine			Back			
		X1	Y1	Z1	X2	Y2	Z2	X3	Y3	Z3	X4	Y4	Z4	X5	Y5	Z5	X6	Y6	Z6	X7	Y7	Z7	X8	Y8	Z8	X9	Y9	Z9	X10	Y10	Z10	X11	Y11	Z11	X12	Y12	Z12	X13	Y13	Z13	X14	Y14	Z14	X15	Y15	Z15	X16	Y16	Z16	X17	Y17	Z17	X18	Y18	Z18	X19	Y19	Z19	X20	Y20	Z20	X21	Y21	Z21	X22	Y22	Z22	X23	Y23	Z23	X24	Y24	Z24	X25	Y25	Z25	X26	Y26	Z26	X27	Y27	Z27	X28	Y28	Z28	X29	Y29	Z29	X30	Y30	Z30	X31	Y31	Z31	X32	Y32	Z32	X33	Y33	Z33	X34	Y34	Z34	X35	Y35	Z35	X36	Y36	Z36	X37	Y37	Z37	X38	Y38	Z38	X39	Y39	Z39	X40	Y40	Z40	X41	Y41	Z41	X42	Y42	Z42	X43	Y43	Z43	X44	Y44	Z44	X45	Y45	Z45	X46	Y46	Z46	X47	Y47	Z47	X48	Y48	Z48	X49	Y49	Z49	X50	Y50	Z50	X51	Y51	Z51	

271	1.125	179.53	1279.1	246.52	57.21	1507.1	424.91	40.637	1490.5	73.661	47.497	1830.6	235.01	135.37	990.62	385.28	143.72	1018.4	137.44	-74.179	1023.4	278.71	-64.597	1032.3	198.57	47.404	905.9	441.23	37.789	927.39	64.449	47.698	1083.2	425.36	43.306	1095	88.396	-89.485	985.7	235.84	87.005	648.03	435.89	179.12	579.02	416.17	103.36	559.13	422.46	167.34	688.09	433.46	124.67	495.39	418.19	125.04	492.6	282.13	-78.521	388.21	399.51	-85.54	283.56	365.28	-128.46	339.82	384.21	-38.167	334.34	388.62	-204.55	256.52	362.6	-167.42	239.37	279.62	-259.75	278.54	295.35	-271.07	250.16	263.79	-287.79	257.39	327.44	-196.03	127.77	403.35	-150.39	92.521	296.45	-103.77	61.931	355.46	66.937	686.36	81.381	165.06	608.4	92.513	92.758	602.48	97.592	134.89	691.47	73.238	149.13	517.57	108.74	144.79	508.35	232.61	68.214	334.33	108.06	139.26	249.28	117.46	75.156	257.05	117.88	132.83	325.15	107.34	116.55	100	135.74	117.79	111.38	229.86	39.119	70.07	181.02	44.998	46.34	216.48	43.421	41.178	154.37	228.32	42.12	119.71	257.15	51.744	236.04	314.9	62.505	187.84	-2.6872	1551.4	255.46	-81.246	1294.2	238.47
272	1.1292	184.82	1279.7	246.76	62.184	1508	424.69	46.651	1491.3	73.402	53.086	1831.3	234.59	140.28	991.63	385.23	148.86	1018.9	137.35	-69.148	1024.3	278.48	-59.461	1033.1	198.35	52.534	906.97	441.24	42.657	927.96	64.415	52.472	1084.1	425.17	48.69	1095.8	88.255	-84.429	986.55	235.62	95.073	649.45	435.93	187.89	581.4	416.14	112.34	560.73	422.48	174.98	690.34	433.47	134.37	497.31	418.2	134.8	494.53	282.1	-67.817	388.43	399.4	-73.814	283.6	365.71	-117.26	339.52	384.22	-26.997	334.87	388.84	-192.5	255.38	362.77	-155.24	238.31	279.87	-248.09	276.22	295.34	-259	247.44	263.98	-275.78	254.91	327.59	-182.17	127.25	404.4	-136.2	91.82	297.65	-89.112	62.309	356.85	70.293	686.92	81.479	167.86	608.27	92.649	95.523	602.87	97.6	138.31	691.59	73.389	151.18	517.43	108.87	146.73	508.25	232.75	69.252	334.59	108.25	139.97	249.26	117.53	75.917	257.28	118.08	133.84	325.16	107.44	116.65	100.14	135.91	117.91	111.43	230.01	39.134	70.155	181.12	44.996	46.387	216.51	43.453	41.307	154.43	228.35	42.147	119.72	257.21	51.55	236.1	314.94	62.276	187.88	2.844	1552.2	255.02	-75.898	1295.1	237.84
273	1.1333	190.09	1280.3	247	67.145	1508.9	424.47	52.66	1492	73.156	58.682	1832.1	234.18	145.18	992.66	385.18	153.99	1019.5	137.27	-64.111	1025.1	278.28	-54.325	1033.9	198.14	57.672	908.07	441.26	47.505	928.54	64.396	57.249	1085.1	424.99	54.079	1096.6	88.122	-79.366	987.42	235.43	103.09	650.9	435.99	196.56	583.81	416.09	121.25	562.37	422.52	182.58	692.6	433.47	143.98	499.26	418.2	144.42	496.49	282.08	-57.084	388.43	399.35	-61.937	283.44	366.16	-105.97	338.95	384.29	-15.738	335.24	389.09	-180.24	253.88	363.01	-142.87	236.99	280.16	-236.28	273.51	295.44	-246.75	244.36	264.28	-263.57	251.98	327.86	-167.94	126.37	405.39	-121.66	90.917	298.76	-74.049	62.518	358.09	73.61	687.48	81.572	170.6	608.15	92.785	98.241	603.26	97.598	141.68	691.7	73.538	153.17	517.31	109	148.65	508.16	232.88	70.259	334.85	108.42	140.65	249.25	117.6	76.66	257.51	118.26	134.81	325.17	107.52	116.76	100.28	136.06	118.03	111.48	230.14	39.15	70.244	181.21	44.991	46.438	216.55	43.484	41.438	154.48	228.39	42.169	119.73	257.27	51.362	236.15	314.98	62.052	187.91	8.369	1553	254.59	-70.551	1296	237.2
274	1.1375	195.35	1281	247.25	72.093	1509.8	424.25	58.666	1492.8	72.923	64.285	1832.8	233.8	150.1	993.7	385.13	159.12	1020	137.19	-59.066	1026	278.11	-49.19	1034.7	197.97	62.822	909.2	441.3	52.335	929.11	64.392	62.031	1086.1	424.82	59.474	1097.4	87.998	-74.296	988.29	235.27	111.06	652.39	436.09	205.15	586.24	416.01	130.08	564.04	422.59	190.12	694.87	433.45	153.5	501.22	418.2	153.89	498.48	282.05	-46.324	388.22	399.36	-49.912	283.08	366.63	-94.594	338.13	384.41	-4.3952	335.46	389.36	-167.78	252.03	363.32	-130.32	235.42	280.48	-224.31	270.44	295.66	-234.33	240.92	264.69	-251.16	248.63	328.23	-153.36	125.14	406.34	-106.78	89.826	299.76	-58.601	62.568	359.17	76.889	688.06	81.658	173.29	608.02	92.919	100.91	603.66	97.586	145.02	691.81	73.684	155.1	517.18	109.12	150.57	508.07	233.01	71.236	335.11	108.58	141.32	249.25	117.66	77.386	257.75	118.43	135.75	325.19	107.59	116.86	100.42	136.21	118.14	111.54	230.27	39.167	70.336	181.3	44.982	46.494	216.58	43.515	41.571	154.54	228.42	42.188	119.74	257.33	51.18	236.2	315.03	61.832	187.93	13.888	1553.9	254.17	-65.203	1296.9	236.57
275	1.1417	200.62	1281.6	247.5	77.03	1510.7	424.03	64.671	1493.5	72.701	69.894	1833.5	233.44	155.01	994.74	385.07	164.23	1020.5	137.1	-54.014	1027	277.96	-44.055	1035.5	197.81	67.988	910.33	441.36	57.148	929.67	64.402	66.82	1087.1	424.66	64.879	1098.2	87.883	-69.22	989.16	235.13	118.98	653.91	436.21	213.65	588.66	415.9	138.83	565.75	422.67	197.62	697.15	433.4	162.93	503.19	418.2	163.21	500.49	282.03	-35.536	387.79	399.44	-37.746	282.55	367.11	-83.127	337.06	384.6	7.0288	335.54	389.65	-155.13	249.86	363.7	-117.61	233.62	280.84	-212.17	267.01	295.99	-221.72	237.15	265.19	-238.54	244.88	328.7	-138.44	123.58	407.23	-91.565	88.563	300.67	-42.792	62.468	360.11	80.133	688.65	81.738	175.94	607.89	93.052	103.54	604.05	97.567	148.32	691.91	73.825	156.98	517.06	109.23	152.5	508	233.12	72.186	335.37	108.73	141.96	249.25	117.72	78.096	257.98	118.58	136.66	325.22	107.66	116.96	100.56	136.36	118.25	111.6	230.4	39.186	70.431	181.38	44.97	46.554	216.61	43.547	41.707	154.6	228.46	42.203	119.75	257.39	51.002	236.25	315.07	61.616	187.96	19.402	1554.7	253.76	-59.854	1297.8	235.94
276	1.1458	205.87	1282.3	247.76	81.956	1511.6	423.81	70.678	1494.3	72.49	75.508	1834.2	233.1	159.94	995.78	385.01	169.33	1021.1	137.02	-48.954	1027.9	277.83	-38.921	1036.4	197.68	73.173	911.48	441.43	61.942	930.23	64.428	71.616	1088.1	424.51	70.299	1099	87.777	-64.137	990.03	235.03	126.85	655.44	436.35	222.07	591.09	415.76	147.5	567.48	422.78	205.08	699.41	433.32	172.27	505.15	418.19	172.36	502.5	282.02	-24.722	387.16	399.57	-25.443	281.83	367.6	-71.574	335.74	384.84	18.529	335.48	389.97	-142.29	247.37	364.15	-104.72	231.6	281.23	-199.87	263.26	296.42	-208.93	233.07	265.78	-225.72	240.76	329.26	-123.2	121.74	408.08	-76.038	87.144	301.49	-26.647	62.232	360.92	83.343	689.24	81.811	178.55	607.76	93.183	106.13	604.45	97.543	151.58	692.01	73.961	158.81	516.94	109.34	154.43	507.94	233.24	73.111	335.62	108.87	142.59	249.26	117.77	78.789	258.22	118.72	137.54	325.25	107.71	117.05	100.7	136.49	118.35	111.66	230.51	39.207	70.529	181.47	44.954	46.618	216.64	43.578	41.844	154.66	228.49	42.215	119.76	257.46	50.829	236.3	315.12	61.403	187.98	24.911	1555.4	253.36	-54.504	1298.7	235.31
277	1.15	211.13	1282.9	248.03	86.873	1512.4	423.6	76.686	1495.1	72.289	81.128	1834.9	232.78	164.88	996.82	384.95	174.42	1021.6	136.93	-43.887	1028.8	277.74	-33.787	1037.2	197.59	78.382	912.62	441.51	66.72	930.78	64.468	76.421	1089	424.37	75.736	1099.8	87.68	-59.047	990.89	234.96	134.68	656.98	436.52	230.4	593.49	415.59	156.09	569.21	422.91	212.49	701.66	433.23	181.51	507.1	418.17	181.35	504.49	282.01	-13.883	386.32	399.77	-13.009	280.95	368.09	-59.936	334.2	385.13	30.102	335.29	390.3	-129.26	244.6	364.65	-91.657	229.36	281.66	-187.4	259.2	296.94	-195.95	228.7	266.45	-212.68	236.3	329.91	-107.65	119.63	408.89	-60.212	85.585	302.23	-10.189	61.877	361.6	86.52	689.83	81.879	181.11	607.63	93.311	108.68	604.85	97.515	154.8	692.11	74.093	160.6	516.83	109.44	156.36	507.89	233.34	74.01	335.87	109	143.2	249.28	117.81	79.465	258.46	118.86	138.39	325.3	107.76	117.15	100.84	136.62	118.45	111.72	230.62	39.229	70.629	181.56	44.935	46.686	216.67	43.611	41.984	154.71	228.53	42.224	119.77	257.52	50.659	236.34	315.17	61.193	187.99	30.416	1556.2	252.97	-49.152	1299.5	234.68
278	1.1542	216.38	1283.5	248.31	91.781	1513.2	423.39	82.698	1495.8	72.096	86.751	1835.6	232.48	169.83	997.85	384.87	179.5	1022	136.84	-38.813	1029.7	277.68	-28.654	1038	197.52	83.616	913.76	441.61	71.482	931.31	64.523	81.237	1090	424.24	81.195	1100.5	87.593	-53.953	991.74	234.91	142.46	658.53	436.72	238.63	595.88	415.4	164.6	570.95	423.06	219.86	703.88	433.11	190.65	509.03	418.16	190.17	506.47	282.01	-3.0179	385.3	400.03	-0.44943	279.9	368.58	-48.216	332.44	385.48	41.742	334.97	390.67	-116.04	241.56	365.2	-78.429	226.93	282.1	-174.75	254.85	297.54	-182.78	224.06	267.19	-199.43	231.51	330.63	-91.817	117.28	409.66	-44.101	83.904	302.91	6.5594	61.42	362.19	89.665	690.43	81.943	183.62	607.49	93.437	111.19	605.24	97.487	157.99	692.2	74.22	162.33	516.72	109.53	158.3	507.84	233.44	74.886	336.13	109.14	143.8	249.3	117.86	80.124	258.71	118.98	139.21	325.35	107.8	117.25	100.98	136.74	118.54	111.79	230.73	39.252	70.732	181.64	44.914	46.757	216.7	43.644	42.126	154.77	228.57	42.23	119.78	257.58	50.493	236.38	315.22	60.986	188.01	35.917	1556.9	252.58	-43.799	1300.4	234.05
